<svg version="1.1" id="svg2474" xmlns="http://www.w3.org/2000/svg" x="0" y="0" viewBox="0 0 1348.9 865" xml:space="preserve"><style>.st3,.st5{fill:none;stroke:#a81602;stroke-width:1.7008;stroke-miterlimit:3.8637}.st5{stroke-width:3.4016;stroke-linejoin:round}</style><g id="layer1" transform="matrix(1 0 0 .97375 324.441 -85.868)"><g id="Switzerland" transform="translate(-323.94 88.619)"><path id="path9" d="M869.1 799.7h3.2l.8-7.2-4.8-.5-1.5 7.5 2.3.2zM804.2 85.1l-1.1.1-2.4.3-2.5-1.2-1.9-.1-5.3 2.5.1-2.1v-3.2l-2.7-3.2.7-2.7 5.5.7 4.5-1.1 1.4 3.8 2.8 3.9.9 2.3zM1013.6 350l-1.3-2.7-.4-.8-.5-1-.2-.3-.3-.6.1-.4.4-1.1.1-.4 2.1-2.3 6.5-4.8 2.7-2.8.7-2.1.2-.6v-.6l.2-2.3-2.3-9.5-1.1-4.5-.4-1-3.9-9.5-.2-.6-.2-.4-.1-.6-.6-3.8.1-5.3 4.3-16.4 7.5-17.2 3.3-3.8-.2-.7.8-.1 3-7.9 1.3-1.8.4-.6 4.6-3.2 2.2-3.4.5-3.4 2.4-5.8 5.1-8.8.7-1.2s5.5-.1 7.3-.5c1.8-.4 3.4-1.1 4.8-3.2 1.4-2 2.1-4.9 0-6.9s-4.2-2.5-4.2-2.5l1-4.9-1.2-7.4-.2-1.3.6-3.5 1.3-2.4.3-.6-.8-1-2-2.5-1.8-.2-3.6-.8-3.9-3.9-.9-.1-1.5 1.5-1.5.2-2.3-2.4-1.8-4-2.8-3.3-2-2.7-.5.1-1.4-1.4-.7-.7-1.3 3.5-2.2 2.1-2.7 1.3-9.6.8-4.3-1.5-1.1-1.6-6.2-3.9-3.7-3.4-.6-.5-2.5-.5 1.3-1.1.2-1.6-.2-.4-.6-.9-3.1-1.9-1.5-.9-5.6-5.1-1.9-1-2.4-3.3-.4-2.6.8-4.5-1.2-2.5-14.1-8.2-7-6.4-7.1-4.9-5.3-2-3.6-2.2-3.9-1.2-4.2-3.5-5.2-1.8-2.3-1.9s-.7-1.4-.6-1.4l-4.6 1.6-3.4-2.8-2.8-2.3-2.3-.6-3.9-1.6-7.3-4.1-11.5-1.1-4.8-2.1h-5.3l-10 6.3-9.8 5.2s-9.1 3.2-11.9 3.4c-2.8.3-6.9-3.8-6.9-3.8l-2.7-7.6-3.9-1.1 1.1-2.8-1.8-2.7 5.6-.7-.7-4.6h-6l-2.7-2.7-4.2 1.4-.7-4.2-2.4-2.5 1.3-2.4-3.8-5.3-2.8 3.9 2.1 3.1-2.5.4-4.8 4.9.7 3.4 5.9.7 2.5 4.2-1.8 1.1-1.4 4.5-.1 1.6-2.8-.6-4.5-3.4-3.5-.9-4.7-1.2-2.2.2.4-2.3 1.1-8.7-4.1-1.1-2.5-3.4v-3.9l3.7-2.6 4.7-1.9-5.9-6.3-5.3 2.8-4.2-2-.3-4.6-.7-3.9-4.5-3.1-1.8-3.9-2.5 2.5-.4 4.1L785 51l-1.1 3.8-6.6 3.9v-3.5l-2.1-1.3 1.4-3.5-1.8-3.5.4-4.8-2.7-2.5-7 .4-3.4-2.4-1.4 5.5 2.8 1.8.7 3.8-2.8.7-4.8-1.1-5.3 1.4-3.1 2.5-2.5-1.8-6.2 2.1-4.2 4.5-2.4 3.5-2.5 5.2.7 3.2-.4 3.1-4.6 4.6-5.5 1.1-3.5 4.5 3.2 1.8 2.1 3.8-1.1 2.8-3.5 1.1 1.4 4.1 2.8-.7 2.8 2.1 3.8 3.2 3.9-.4v4.1l5.2 2.1-.7-3.5 3.2 1.1s2.7-1.1 4.8-1.4c2.1-.4 6.6 1.4 6.6 1.4l-.7-6.2 9.4-3.8 1.1 2.7 3.2.4 3.1-3.1 5.5-.8.1 1.3v.3l2 5.1 1.4 3.4-.7 2.2-1.6 1.3-2.3-.2.7-2.8-.2-2.2-2.8 2.4-.7 3 2.3 9.3-.6 2.6-2.1 3.9-.1 1.4-.1 1-1.2 1-2.2-.8-6.1-1.9 3.2-5.9-4.6-4.2-3.4-.4-.7-2.5-4.8-.3-1.4 2.7-2.1 3.2-7.3 1.8-2.1 4.1-3.4 2.1 2.7 4.5 4.9-1.4 2.2 3.2-2.5.8-.7.2-3.3 1-5.1 1.3-2.8.3-2.1 1.1-1.7.1-.7-.2-3.8-1.2-1-.5-2.5-1.4-1.5.1-3.1 3.3-3.2.7-5.2-.4-5.3-1.4-1-.6-.7-.4-1.2-.7-3.8-4.9-3.4-2-.5-1.6.4-3.2-1.5-1.9-2.5-1.1-4.7.4-3.2-2.9-1.3.1s-.9.9-1.4 1.1-1.9.6-3.4 1.1-2.6-.6-3.5-3-4.4-1.2-5.2-.6-3 3.8-3.5 4.4-2.1 2.9-4 4-6 2.5-7.6 2.8-4.3 3-4.3 3l-1.4 1-4.2.5-1.8 1.8-2.2 6.7-1.2 1.1-1.7.1-3.4-1.6-2.2-1.1-1.1.3-.6.1-2.4 3.3-1.6.6-.4.1-3.3.8-3.5 1.2h-2.1l-2.9-2.2-1.9-.6-2.9.4-4.3.1h-3.4l-.7.7-1 2.5-1 .9-2 .3-3.4-1.1-2.8-1.9-.8-1.7-.4-3-.2-1.2-.3-2.5-.1-.7-1.7-3.5-.8-.6-.5-.2-2.4-.8-2.8-.3-10.2 2.2-3-1.4h-1.6l-2.4 1.2-.2 1.5-1.1 2.9-2.5 3.1-1.5 1.9-1.5 1.1-2 .7-2 .6-.2.1-3.8 1.2-1.4.3-.4.1-11.3 2.6-1.2.7-4.5 3.2-3.9.7-2.5-.7-2-1.8-1.8-1.7-2.4-2.2-1.7-1.5-1.1-1-.5-.9-.5-.8-.7-.6 2-1.6 4.2.8 1.8-2 3.8.2s2.5-1.2 2.8-2.8-.5-3.2-.5-3.2l-2.2-3.2 4-3 3.2-3.2-3.8.8-5.5 3-5.2-1-5.5 7.2-5.5.8-.8-4.2-4.2-.8-1.2 5.7-3.5-.5-2.5 1-1.8 4.8-4 1.2-6 6.5h-3l-3.2 3.2 1.2 3h3l2.5-1.2 2.8 2.8-2 4-2.5-.5h-4.2l2.5 1.8.2 2.8 1.2 3.5-1.8 1.2-2.2 2.8-2.2 3-5 .5-10.8-7-3 5.8 8.8 3.8-2.2 4.8-4.2 1.5-1.8 3.5-4.8 5.2s-1.5 1-3.5 1.2-2.5 2.2-2.5 2.2l-2.8-1.8h-6s-1.8 0-3-1.8-4.2-.8-4.2-.8l-7 1.2s-3.8 1.8-5.2 1.8-2.5 1.8-4.2 2.2-6 3.5-6 3.5l.2-2.8-3-1s.2-.8.2-2.2-2-2.8-3.8-2.2-3.5 1.8-3.5 1.8h-4.2l-.2-1.5-2.8-1.2-4.2-.5 2-6.2.8-6 2.2-4.8 1.5-3.5-9.2.8-5.2-5h-3.5l-2.5 3-5.8.2s-.8.2-3.5 1.8-3.5-1.5-3.5-1.5l-4-.5-2.5-1.2-3.2-.2-4.5-1.8-4.8 2.2-3 2.2v6.5l3 2.8-.2 3.2.5 2.5s-3 2.8-4.8 2.8-4.5 1.2-4.5 1.2l-.5 2.8-1.8 2.2-4.8.2-.2 7.5-1.5 4-5.2 1.2-1.2 3.8s0 2.2-.8 3.2-4.2 1.8-4.2 1.8l-3 3.2-.5 3.2-1.2 3.2 4.5-1.2c1.5-.4 2-1.2 4-.2s1.8 1.8 4.2 1 2.8-.8 4.5-.8 8.5-1 8.5-1l2.8-1.5h4.2l4.2-3.2 5.2 1 1.2 2.8 3.2.8 1.2 4.5 2.8 4.2-2 4.2-2.2 2.8h-6.5l-2.5 3-2.5 4.8.8 2.5-3.2 2-3.2.8-2.8 1.8-6.5-.2-1.5 2.2 1.8 4.3v6l-1 2.8 2.2 2.2v2.8l-3 1.5-.8 3-3 .8-1.5 3.2-4.2 1.5-2.8 3-6 4-2 5-2.6 2.4-5.4 2.6-.2 3.2 3.3.1-1.8 4.4-7 5.5-7 5-5.8 3.5-4.5.5-5.5 5.2 1.8 1.8-.2 6h-6.5l-3.2 1.8-1 4.2-4.8 3.5 6.5 2.8.8 4-3 1.5-2.5 4h-4l-6.8 4.5-3.5 6-.2 2.5v2.5s-4.8 3.8-6 4.5-6.5 1-6.5 1l-5.5 3-18.8 7.2-3-2.8-6.8 7.8-3 5.2-6.5 5.8 3 4.5 5 9-1.5 18.2-5.5 9.8s.5 4-1.2 6 .2 3.5 2.2 5 5 3.2 5 3.2l-2.8 8-3.2 4.2-3.5 3.2s-6.5 2.2-7.8 2.8-2.2 2.2-2.5 4.2-3.2 3.5-3.2 3.5l-27 15.5-3.2 3-.8 3.2-10.8 10.8-13 10.8-1.2 3-12 8.2-5 6.2 5.2 7.2 7 7.5L95 566l-2.5-1-5 6.2-4.8 13.5-6 5.8-.8 5 2.8 2.2.5 3.8-5.2 8.8 8.2 3 1.2 3.2 2.5 1 9.8 9 2-1.5 5 5.5-8 13.8-5.8 8.8-1 7.8-4.8 6 2.5 2 .5 2.8 2.2 2 .8 5.5-2.2 3.8-3.8 1.8-4.5-2.8-7.5 1.2-3.2 4.5-4-2.5-5.2 3.5-4.8 4.8-5.5.8-1.8 7.5 6.2 4-2.2 2.5-2.5.5-5 11-.5 3.5 4.2 5.5 4-5 9.5.2 3.2 2.5 4.5-2.2 1-3.8 7 .5 2.8-.2 4.8 2.8 4-.2 3.2 1.5 10.5-8.5 4-1 1.2-7.5 11.8-10 4 .8 2.5-2s4.5-1.8 5.5-2.5 5.8-4 5.8-4l4-6.8-.5-4.5h-2.8l-1.5-3-5.8 5.2-3.3-.5-5.8-12.2 3-4.5-3.2-6.5-4.8-3 8.5-19.5 23.5-18.5 23.2-4.5 28-17 42.2 1 38.5 12.2-3.5 12.8-.2 8.2s-2.2 3.5-4 4.2-5 2.5-5 2.5l4 9.2 2.2-.5 2 2.8v2.5l4 1.8 4.5 4.2.2 2.8s1.2.8 3 2.2 2.5.5 2.5.5l4.5 4.5-3.2 13.2-3.5 2.8-2.5 5.5-3 1-.8 4.2s-1.2 1.5-1.8 2.8-1.8 5.2-1.8 5.2l1.2 8.5-3.2 5s-2.2 3-2.5 4.5 2.2 7.8 2.2 7.8l2.5-.5 1 2.5 2.2-.8h6.2l1.8 2.2 14.2 1.8-1 8.2-2.8 3.5 1.8 4.5-.5 5.2-2.8 2.8-1.2 6 3.2 2 2.5-2.2 2.8-1 3.2-5.8 5.2 1.2-1 3.2 1.5 2 2.4-1.8 4.3 9.8 4.8 5.8 1 4 2.5 3.2 3-.2 1.8 5.2 3.8 4.5-4.2 3 2.8 4.2 4.5 1 1 2-.2 7 1.2 5.2 6.5 4.8.5 4.2 2.2 2.5.5 3s3.8 2 4.8 3 .8 2.5.8 3.8 1.2 4 1.2 4 3.2.2 5.8-1 3.2-4.5 3.2-4.5l7.5-2.8 3 5.2c1 1.8 6.8 2.5 6.8 2.5l-.8-5 4.8-4.2 2-3.5 10.2-.5 4-3.5 2.8-7.5 7.5 2.2 1.8 3 4.8-2 4.8 1.2.2 2.8 7.2 3 4.8-5.5 2.5.8 5.2-3.5 4.8-6 6.2-.8.8-5.5 6.8-5.2 5.8-.2 6.5 2.5v-7.5l2.2-4.5 7.8-1 1.8 3.8.5 3 16.2.2s3-3.2 5.8-2.2 4 4 4 4l.8 4 4.8.8 3.8 2.8.2 6 1.8 3.5 4.2.5 3.8-6.2 5.8.5 5.2 4.5 3.8 4 5.2-3.5s4.5 1.5 5.8 1.8 6.5 1.8 6.5 1.8l3-2.2s-3.5-4.2-2-6.8 1.8-6 1.8-6l1.2-7.8s3.5-1.8 5-3.8 3.5-6.5 3.5-6.5l15.5.2 5.8-.2.8-1.5 1.2-5 3-.8.5-7.8 5-5.5s-2.5-4.2-2.5-7.2v-5.5l1.5-2.5 1.5-8 7.2-.8 3.5-1.5 5.5-.5 4-2 2-2.2-.2-4.5 4.8-3.2h3.8l3.2-4.8-2.2-2.2s.8-4 1.8-5.2 3.2-4.5 3.2-4.5l-2.5-4.5-3.2-7.5.2-3.2-9-8.5v-3.8l-8.5-3.2.5-4.8 9-8.2 2.2-3.8 5.2-4 2.5.5 4 2.2 5.2-1.5s2-1 3.2-1 2.2-.8 2.2-.8l2.2-2.2 2.5-5.2.5-3.5 3.2-3.8h4.2s0-2 1.8-2.5 2.2-2 2.2-2l-.8-2.8.8-1.8 3.5-2.2 3.2.8 3.8-3.5 3-1.2.2-7.8-6.2-3.2 4.5-8.2h4.5l7.8-6.5 4.8-5 7.2.2 6.5-3.2 7.2-1.8 2 .5 1.8 1.5v2.5s2.2.5 3 2.5.5 5 .5 5l-1.8.5.2 6.2 2.5 2.8-.5 2.2-1 2.2 2 2.2-.2 2.2-1.8 1.5 1.5 12.8-2.2 2 1.5 9-7 8-.2 4.5h-1.8s-1 3.5.5 6 4 5 4 5l1.5 4.8-2.2 1.2-1.5 2.5 3.8 2 2.2 1.8 1.2 4 4 .8 4.5 1.5 3.2 2 5 1 2.7 7.7 3.5 5.1 3.8 3.2 4 6.2 2.5 3.8 2.2.5.2 7 3.2 3.5 1 3.5h8.8l3.8 4.8h4.5l2 3.5 6.5 1.2 8.2-11.2 5.8 10.2 3 1 5 2.5 3-.2 2.8-2.2 8 7.5 4.8 3.2.5 3-.5 3.8-2 5-3-.2s-2 6.5-2.2 7.8-1.8 2.2-3 2.8-2.5.5-2.5.5l-4 6.8-.8 3.5 11.5 2.5 3.5 3.5 3.8 4.5 4.5 6.2h4.2s-.5 4.2.8 6.8 6 8.8 6 8.8l3.5 5.8v3.8l1.2 2.8.8 5.2 2.5 3.5-4.5 5.8-2.5 3.8-1 4 5.2-.2 1.8-3 5.5-.8 3 3.5 4.8-1.8 2.5 2.5v2.8l3 2.2 2.5.8 1.2-2.8 1.8-5.5 2.8-3.5v-4l2.8-7.8 3.5-1 4-6-2.5-5.2-5.2-5.8h-2.5l-1.2-2.5-6.2-1.2 1-2.8-2.8-2.2.5-5.8-6.2-5.2 1.5-4.5 3.8-.8.2-2.2 3.2-.8.8-4.8-2.5-7.5-3.2-5.2 2-3.8 1.8-4 8.2-5.5 4.5.8 3.5-1.5v-3.5l3.2-4-4.5-12 .2-2.8 5-2.5 2.8-2.8 5.2-2.2 2.5-5 4.8-4.5 2.8-1 1-3.8 6.8-.5 1.2-2 3.2-13 4.2-3 1.5-2 .5-3.5 3-1.8 3-.2 1.5-13.2 2.8-1.8v-3.8l2.5-1.8 1-2.5 2.5-3.2v-5.5l2.5-2.8.2-6.2 1.2-5.5-4.8-4.5-1-6 2-5.2-1.8-4.2.8-5.8-5.2-4.8-3.5-4.8v-7.2l4.8-.8 2-2.8 1-11.8 1.5-3.8 9.8-4.2h11l2.2-1.2 3.5 1.8v3.2l-1.2 1.8 4.5 4.5 1 3.2 5 2.8 3.5-3.8.2-6.5 4-3.5 6.8-3 .8 4-.8 6 1 7.5-1.2 2.8-1.8 16 2.2 3 2 10.5-2.2 4 8.5 4 2.5 2.5 3.2 10.8 2.5 5.5 6.2 7 3.2-.8 3 2 4 2 6.8.2 3 3h6l10-6 2.5 2.8 4.5 2 2.5-.8 1-4.5 2.5-4.8-2.5-2v-2.5l2-3.5v-2.8l3.2-4h3l3 2.2 1 2.5 4 1.5 4-3 5-1 4.2-3 3-3.2 3.2-1.5 6.5.2 3.8-1.5.5-2.8 6.5-3 6 5s1-2.8 2.8-3.2 5.8-1 5.8-1l.5 3 3 4.2 4.2 2.8 2.8.5.2 5.5-3.8 7.8 3.5 2.2s2.5 4.2 2 6.2-1.2 6-1.2 6l7.2 2.5 8.8 5.2s3 2.5 2.8 5.5-.8 7-.8 7l-2 3.2 4.5 3.8s2.8-5.5 7.8-4 6.8 1.8 6.8 1.8l4.2-1.2 10-10.5-.5-4-3.2-2-.2-4.5-2.5-1 .2-3.8-2.8-.5-1.8-3.5-5.2-4-1.5-4.8-2.5-4.5 1-8 5.2-3.8v-7.2l5.8-4 4.2 1s.2-2.2.2-4-.5-6.2-.5-6.2l-3.2.8-1-3.8-1.5-3-3.5-.2-4 1.2-1.2 1.8-7.5-.2-1.5-2h-2.8l-3.2-5.5-4-1.8.5-5 3-3.2-2.5-4.8v-14.5l2.2-2.5-.2-6-2-1.5.5-3.5 4.8-2.5 2.8-5.2 2.8-1.8-2-2.2.5-3.2 4.8-.5 1.2-2.8-.2-7.5 1.8-3.2 7.5 2 2.8-2.5 6.8-1.8 4.5-4.2 8.5 2.8 1.8-3.5 6.5-3 .8 5.5 4.8 5.8-4.8 9 2 7 3.8-3.2 7.2 3.8 1.8 2.8.8 5 7.2-.8 4.2 4.2 2.5-6h4.2l8 4.5 5.8-2.5 9.8 6.2 4.5-3.5 1.2-4.2-.5-3.5 2.2-5.5 1-3.8.5-10-3.8-6.2-5.1-4.6-9.9.6-1.5 2.2-3.2-1.5s-.8-2.5-1.2-4.2-1.5-4-1.5-4 .2-6-1-8.2-2-4.5-2-4.5l4.2-5.2 2-3.5 2.2.2s1.5-3.2 0-5.8-3-4.2-3-4.2v-3.5s2.8-2.5 5.2-3.8 5.5-4.5 5.5-4.5l-.2-6-4.5-5.5 1-6 3.8.2 2.5-4 1.5-8 2.2-6.5 2.8-3.5 1.8-1.5-1-5.5-2-5.5 1.5-5.8 2-5.8 2-3.5 1-7.2-2-3.2-6.8-5-6.5-1.2-3.2-2.5-.5-3.8-6-5.2-.5-2-3.2-2-3.2 3.8h-6l-4 7-1 3.2-1 1.8-.5 3.5-3 1.5-1.2 4.5 1.5 2.2.2 3.8-3.2-.5-2.2 2-6-2.5-9.2-1.8-1.8 8.2-2.5 6.2 1.8 3.2-.5 9.2-7.2.2h-3.5l-3.5 5-7.2 3.2-.5-2.2-7.5 1.5-2.2 2-5 .2v-2l-2.8-1.5-.2-3.5-10.2-1.8.5-4.8-7.2-7.8-3.2-2-3.6-.6-5.6-2.1-2.1-5.2-3.8 1.7-6.2-.4-6.9-3.1-9.4-5.3-3.2-12.8 5.5-9.4-.3-4.5-4.6-2.8v-2.8l1.4-3.1-3.9-1.1-2.4 2.5-5.6 1.7-3.4-3.4-3.5-1.1-4.1-2.8-2.8-3.4-5.9 1.4-4.6-.7-1.7-2.5-6.3-.7-3.4-2.5-4.6-1-2.4-2.8-7.3 1.4-4.2 2.7h-3.4l-4.9-3.8-7.3 2.1-4.1 2.4-3.2-.4-1.1-3.1-2.5-2.5-6.2 2.5-8.4 1.4h-2z" fill-rule="evenodd" clip-rule="evenodd" fill="#fefee9"/><path id="polygon105" fill-rule="evenodd" clip-rule="evenodd" fill="#f2edec" stroke="#e3e1e9" stroke-width="1.276" stroke-miterlimit="3.864" d="M941.2 65.8h0l2.9 3.7.1 5.6 4.6 5.7 2.5 2.3 4.2 3 4.7 1.9 6.9 5.8 2.9.8 2.8 1.9.6.2.8.8 1.3 1.3 1.3-.3 4.8-1.1 1.5.1 1.2-.8 2.5.4 2.3-1.1 2.9-.2 3.4.5 3 3.2 5.4 1.9 1.8 1.2 3.5.4 6-.5 1.8 1.3 2.1 1.4 2.2 2.6.3.9 1.4 3.7 1.5 2.2 1 1.4.6 2.1 1.4 5.3 1.8.4 3.9 3.9 3 1.1 3.8-1.2 2.7.3.7-.7 1.4.6.4.2.7 1.4 2.3 4.2 2 1.4 2-.2 2.8 1.6 3.2 3.1 3.7 1.3 3.8.1 2.1 1.2-.2 2.6 1.3 1.2 2.3-2.1 2.2.1 3.2.3 1.2 1.2 1.6 3.5 1.9 1.8 3.7 3 1 2-.4 3.2-2 1.9h-7.6l-4.2-1-.5 1.2 1.1 2.2-.7.1-1.8-1.6-1.5.8-.3 3.3-2.3 2.9-1.9-1-2.3-.4-1.3.8-1.5-.3-2.7-3.5 2.4-3.1-.7-.8-1.2-.1-4.5 3.4.1 1.3-2.1.5-1.1 1.6-1.9.8-3.3.3-5.3-2.5-1.1-1.3-.7-2.9-1.3.2-.2 1.3 1.1 2.4-.7.1-1.4-1.4-.8-.7-1.3 3.5-2.2 2.1-2.7 1.3-9.6.8-4.3-1.5-1.1-1.6-6.2-3.9-3.7-3.5-.6-.5-2.5-.5 1.2-1.1.3-1.6-.3-.4-.6-.9-3.1-1.9-1.5-.9-5.5-5.1-1.9-1-2.4-3.3-.4-2.7.8-4.5-1.1-2.5-14.2-8.2-6.9-6.4-7.1-4.9-5.4-2-3.5-2.2-3.9-1.2-4.3-3.5-5.2-1.8-2.3-1.9-1.6-3.3-.2-.6-2.3-1.3-1.4-.9-1.5-.3-4.4 1.5-2.4-.6-5-.1-6.4-1.3-2.9-2.3-1.4-.4-1.7 1.2-8.2-1.9-.7 1-6.3-.1-4.7.9-1.9 1.4-4.8 1.8-1.1 1.1-1.5 1.7-2.8.4-1.4 1-3.7.4-7.8 3-3.4.5-2.1-.4-2.7-2.5-3.8-.5-2.5-2-3.6-1.6-3-3.5-.9-1.1-6-1.7 1.7-.6 3.7.4 1.1.6 1.1.6 2.5 3.1 4.1 3 3 1.1 3.3.1 1.7.5h0l.7.2 5.8-.6 3-1.7 2.5.5 4.9-2.5 2.5-2.3 2.1-.5 1-1.2.6-.4 7.6-4.8.9-1.1.3-2.2-3-4-5.3-2.6-4.6-3.5-3.8-.9-1.5-2.3.8-1.7 3.9-1.2 6 1.3 2.9 1.5 4.6 2.4 1.7 1.5.2-1.6-6-4.9-.4-1.3.6-1.5 2.1.8 3 2.9 4.8 2.7 5 2 4.2 2.5 4.1 3.1 4.3 1 .7.2 3.5 4 .8 2.3-1.1.4h-6.8l-2.1-2.9-1.6-.5-2.3-2.5-1.2.3-1.2-1.3-1.9-.8-.4 3.9 1.6 2.3 4.4 1.9 5.3 1.3 4.5-.1 3.5-.1 3.8 5.1 1.9 1.2 2.2.2 5.5-.2h2.4l.5.2 2.1 1.2 4.5.9 4.7-1.2.4-1-.8-2.5.5-2.5-1.9-3.1-4.9-3.3-1.2-2.5-1.4-1.3.3-2.9-.9-5.6-.9-2.1-6.8-6.3-2.6-.1-1.9-.8-4.3-3.5-5.7-3-3.8-2.8-5.1-3.8-3.6-4.2.6-1.5-4.5-3.6-.5-1.3.3-1.4.8-.6.4-1.5 6 1.5 4.4 5.2 2.9 2 3.1.9 3 2.8 2.5 1.5.2.1 4.8 4.9 6.4 2.4 4.1 2.4.1.1 1.9 1.4 4.5 3.5 4.5 1.3 1.5 1.7z"/><path id="path209" d="M353.2 349.4l-4.9 5.3-5 .8-2.8 3.4v1.8c0 .8-.2 4.2-.2 4.2l-.2 1.8-.6 2" fill="none" stroke="#0978ab" stroke-width="1.276" stroke-miterlimit="3.864"/><path id="path211" class="st3" d="M290.6 301l3.7-3.3 1.5 2v2.8l2.5 5 4-1.5 4.8-4.2 4.8-2 1.2-2.8-.2-2.5 4.5-2.5 1 3h3.2l2 2.8 2.2-.5 3.5-6.8 7.8-1.8 3.5-6.2 2.2-5.8 3.5-1.5-.5-5.5 7.2-1.2 1 3.8 2.8-.5 1.2-1.5 6.8-1.2 4 1s1.5-1.5 2.8-1.5 1.5-.5.8-1.5-1.8-2.5-1.8-2.5v-4.5l5.8-3 .2-7.8 10.8-.5v3s4-1.5 6.2-.5 5.2 1.2 6.5 1.2 5.8.2 5.8.2 7-.8 9-1 4-2.2 4-2.2l5.2-5.5s4.8 0 6.2-1 3.8-2.2 3.8-2.2l10 .2.8 1.8 3 1s5.5-.8 8.5-.2 4.8 1 5.8 1.2 2.2 1.2 2.2 1.2h2.8l5.4-3.2 3.7-1.3 5.1-2.3"/><path id="path213" class="st3" d="M483.8 228.4l-3 1.5-3 2.2-1.2 2.5-.5 2.5 2 1 3.2-1.2s2.2.5 3.2.5 2.8-1 2.8-1 .5-1.5.2-2.5-2.2-4.2-2.2-4.2l-1.5-1.3s-1.2-1.8-2.5-1.8h-2.2l-.8-2 1.2-1.5-1-1.8-3.8-1-.5-4s-6.2.5-7.2.8-9.5.5-9.5.5l-6-4-6.5-.2-1-6-3-.8s-3.5-1.8-3.8-3.2-.8-3.5-.8-3.5"/><path id="path215" class="st3" d="M420.8 188.7l-.2 4h2.8s.5 1.8 2 2.8 3.2 2 3.2 2v2l5-.2 3 .8s3.8.5 5.5.8 4.2.5 4.2.5l1.8-2h2l2.5 1s2-1.8 2.5-3 .8-3.5.8-3.5l-1-3.2-3.2-3.5-2.8.8-4-.8"/><path id="polyline217" fill="none" stroke="#646464" stroke-width="1.701" stroke-miterlimit="3.864" d="M435.3 192.4l-.5 4-1.2 2.8"/><path id="polyline219" class="st3" d="M483.6 137.4l2 2.8-2 2v3l4.2-.3 2.5.3 1.8 2-1.3 3 1.8 2.2.2 3.3 2.3-.3 2-5 4.5-3.5v-5.7l1-1.3 3.5-2.7"/><path id="polyline221" class="st3" d="M452.1 179.4l4.2 5.5 4.8-2.7 3.2-.3 2-1.7 3.5.7 3.8-1 4-.2-1.8-3.8v-2.5l1.5-.5.5-5-1-2.2-4.7-1.3"/><path id="polygon223" class="st3" d="M520.3 301l-1 1.7-2 .8-1.2 3 4.2 1 1.3-2 2.7-2z"/><path id="path225" class="st3" d="M451.6 213.7l-.5-2.8 1.5-.8v-2.5l-1.5-1.8 2-2 3.2.5 5.2.2.5 4.5 2.2 1.5 4.2 1s.5-2 2-2 3.8-.2 3.8-.2l2.2-5.2-2-2.8 2.2-2 2.5-.2 11.2.2-2.5-2.5-1-2v-5.2l2.8.8s.2 3 1.8 2.8 2.5-1.8 2.5-1.8l6.2-.2-.5-4.5 2.2-6-.8-3-3.2-1.2-.2-2.5.8-2-.5-3.5 8 2.8 2.2-1.8h3.2l-.2-1.8-2.5-.8 1.2-2h3l2.2 4.8h2.5l1.2 1.8h3.5l3.8 5.8-1.5 1.2-1 3-3.5 2-2 3.2.8 4.2-1.2 6.5-4.8 3.8h-8.5l1.5 9-1.5 1.2 2.2 2.2 1 5 6.5-.8 2.5-1s4.2-.8 6-.8 4.2.5 4.2.5l3.2.8 5.2 9 2.5 2.2h3.2l1.2 1.5 4.5.2 2-1.5v-4.8l2.2-3.2 8.2-1.5 1-3.5 2.5-1.8 9.2-2.2-.2-2.5-2.2-3 5.5-4.2 5 2.8 7.5-3V199l2.8-1 2.8.8.2-2.2 1.5-2.5 4.8 4.2 2.5.2 3.8 1.8 1.2 2.2.8 4.5 4.9.4-.4 10.1-4.8 4.5 1.2 2.5s-.8 1.2-1.8 2-.8 1.8-.5 3.2-.5 2-2.2 2.2-2.2 2-2.2 2h-2.2l-.5 2.5-7.5 2-1.2-3.2 1-2.8-7.8-.8-3.5-4.2-.3 1.7-.6 1.1-1.1 2.1-.3.6-.2 2.2-.4 3.5-1.6 1.6-3.2.2-3.8.3-.8.8-2 3.1-1.2 3.3-2.5 6.6-5.1 5.5-3.4.6-1.9-1.4h-.8l-4.3 3.9-2.8-.5-.5-3.8-4 1.5-.8 2.8-3.5.2-1.2-1.5-2.2.8-3-5.8-2.8-1-2-4-2-.8-1.8-2.2h-2l-1.5 2H513l-1.8 1.5s-2 1-4.8 1-10 .5-11.2.8-6.2 2-6.2 2l4.8 4.5v8l8.5 7 4.5.2 2.8 7.5-1 3 3.5.5 4.2 3.8-1.2 1.2v1.8l2 1.2-2.5 5.2-3 .5-2.2 3.8v3.8h-2.8v-1.8l-5 .8-1.5-2.2-2.2 2.2-5.5.8-3.5-6-2 .8-2.8-2-2.5 2.5-7-.8-1.2 2.5 2.2 3.2-4 4.8.2 4.5-7.2 4.8-3 1.2-4.8 1.8v2.5l1.5 3.2 2.5 3.8-2.5 3.2-3.5 1.5H451s-1.2-.8-2.2-3 1.5-3.8 1.5-3.8l-1-3.2-10.2 2.8-3.5-1.5-1.8-3.8-1.8-4v-3.5l4.2-.8 4.5 2.2 6.8-2 3 .2-.8-3.5-3-.2-.8-1.8 1.8-2.5h3.5l-.5-3.8 2-2h2.8l3.5 2 4.8-3.2 1.2-2 1-3-3.8-.8-2.2-4 1.2-2-1.5-1.5-2 1h-4l.5 2.8-2.5 1.8-1.2-2.5-2.2.5.8 4-3.8.5-1.2 3.5-3.2.2-3.5 1-2.2-1-.5-2.5 3-1-4-7.2-2.5-1.5H428l-3.8-7.2v-3l3-1.8 2.8.8 2.2-.8 1.2-1.8 8-3.8 1-2 3.2-.8-.8-2.2.2-3 3-1 2.5-2.8 6.5-.2 2.5-1.2s1.8-5.2 3-6.5 5.5-3.2 6.5-3.5 3.8-1 3.8-1h3.8l1.8-1.8.2-2 2.2-1.5v-7"/><path id="path227" class="st3" d="M718.1 313.4l-9.8-1-2.8-2-2.8-6.2-4-5.8-.2-6-2-2-.5-7.2-1.8-1.8-1-7.2-1-6.2-4.8-4.2-.8-4 1-3-4-3-3.5-1-2.8-1.5-2.8.5-2.5 2.2-.2 2.5-2.5.2-4 9-3 2.2-.8 8-7.8 1.8-.5-2-3-1-1.5-3.8 5.8-.8-.5-2 1.2-2-3.2-1.5-3.8 2s-3.2.8-4.5.8-1.8.2-3 1.8-3-.5-3-.5-.8-.2-2.5-.2-1.2-1.5-1.2-1.5v-2.8l-4-2.8s-1 .2-2 .5-2.8 2-2.8 2l-4.5.5 1.2 3.8s-4.2.8-5.8 1-3 1.5-3 1.5l-3.8-1.5.2-5.5-3.5-5v-2.8l-2.5-2-2.5 2.2-2.8.2-1.5-1.2-3.5.5-1.8 1.8 3.5 7.2-6.8 8.2-4.8-1s-.2-1-1.5-2-3.5-.8-5-.5-8.8 2.5-8.8 2.5-2.2 1.8-3.2 2-2.8-.2-4-1.5-2.8-2.2-3-3.5.5-3.2.5-3.2l-1.7-5"/><path id="polygon229" class="st3" d="M593.6 180.9l-.5 3.3-2.3 2.2 1 4.8.8 1.7 2.5 1.3 3.5-.5 2.7 1.2 1.3-1.5v-3l-1.5-2v-2.7l-2.3-2.3 1-2.7-3-2z"/><path id="polyline231" class="st3" d="M593.6 180.9l-2-2.5-2.3-.2 1-8.3-3 1.3-2.2-1-6.5-.5.5-2.8-2-2.2-.5-3.5-2.8-1-1.7-2.5-.8-3.3-2.7.5-3.3-5.7-6 .7.8 6.3-2.5 3.2-2.3 1-2 3.8-6 2.2.3-1.7 1.5-1.5-1.5-2.5-.5-5.3-7.8-2.7-5 .2-1-2.7-4.2-.8-2.1-3.9"/><path id="polyline233" class="st3" d="M796.6 302.7l-3.5.8-2.5 1.7-3.5-1.2.2-3-3-1-2 1.2-1.7-1.2-3.8-.8 1.5-2.5-2.5-4-1.5-5.7h-3.5l.3-1.8-1.3-1.7-3.7.7v-3l-7.5-2-5.5-.2-1.3 2-2.5-1.3-2.7.3-.8 2-2.2 1.2h-2.8l-2.7 1.3-1.8-.3-3.5-2.7-3.7-1.3-1.8-2.5-5.5.5-1.2-4-.5-2.5-2.3-3.6"/><path id="path235" class="st3" d="M734.1 371.7l3.5-.7 7-1.5 2.2-1.8s.8-1.5.8-2.8-.2-3.2-.2-3.2h-3l-4-5-3.8-2.5-1-2.5-2.2-.2-5.2-3.8.2-2-4.2-1.2-9.8 2-1.5-4.2 5-4.8.2-4.8 3.2-2v-2.5l2.2-.8 1.8-.2 1.2-2.2 4-.5"/><path id="polyline237" class="st3" d="M741.1 329.2l.2-5.2-2.5-5.8-4.5 3-3.7 3.3"/><path id="path239" class="st3" d="M790.7 85.4l-1.4 6.2 3 2 .5 5 2 3.8 3.8 1 1.2 1.8 3.5.5 2.8-.5 4.5 1 3.2-1 2.5-2.8h3.2l2.2-2.5 1-4h4l.5 5.5 4.5 1.5 1.2 3.2-.5 1.8-3 3s-.5.5-.5 3-2.8 3.2-2.8 3.2l-.2 5.2-3.5-1-.2-2.5-7.2-3.8-3.8-1-2 6.2 2.8 2-.8 3.5h4l11.2 4.8 1.2 4.2 7.5-.8 3.8 4.5-2.5 1.8-2.8.8 1.8 4.8 2.2 5h7l2.2 1.8 5.5.5v9.5l-1.8 4.2 1.2 4.2-3.2 1-.2 3 2.8 2.2 1.8 5 2 1.2.2 2-1 2 1.5 2.5 5 .5v2l-5.2.2 2 3.8-.8 3.5-2 3.2.2 2.2 3.8.8 2.2 2.5 4 2.5-.2 3 3 2.2 2 7.5h2.5l1.8 3-1 3.2 2.2.8-.8 4.2 2.5 3-3.8 5.8-4 .5-1.5 2.2-.8 3-3.8 1.5 1 3.5 2.5.5-3.5 8-5.8 1.8-7.2 1-3.2.2-1.2 2.8-4.8 1-1.5-3.2-2.2 2-4.5-2.2-4.8 1.5-4.1 2.5-1.2 6.5"/><path id="polyline241" class="st3" d="M866.1 214.9l2.7-3.5h2.8l.2-2.5 2-2.5-.5-3.7 1-1.8 2.8-.2 1.2-3.8-1-3.5 2-.5 1.8-2.2h3.7l1.5-1.8 3.8 2.6 2.1-2.7 4.5-1.1v-2.8l-4.5-1.4-2.4-2-.7-3.9-4.9-1.1.7-2.7-2.4-1.4 4.1-4.6 2.5 1.1 3.8-2.1 3.5 2.8 3.1-2.1 4.2-.4 2.4 5h2.5l1.6-1.4 3.9 2.4 3.1-2.4h3.9l3.5-1.8.9-5.9h2.5l.7 3.1 2.5 1 5.5 2.1-1 2.5 3.5 1.8 1.7-2.1 5.2.7 2.8 2.3 4.9.7 4.4-3.7 2.5 2.1 3.9.3 3.1-5.5 1.4-3.5-2.3-1.8 1.6-2.8-2.9-1.4-2 2.1-3.5.7-5.5-1.4 4.8-2.4-.4-2.1 4.6-2.1 4.2 2.5v-4.3l2.4-.7 1.8 1.8 2.7-1.1.3 3.6 3.2 1.4.7 3.4-2.8 1.4-2.5.3.4 2.9 5.3-1.1 4.5-.3.3 2.7-2.5 1.4v2.8l3.6-1.1 2.4 2.5 1.7 3.1 2.5-2.7-.8-3.9 2.5-2.7 2.5.3 2-3.1 4.3-2.1"/><path id="path243" class="st5" d="M794.8 83c1.8-1.8 3.4-1.4 4.8 0s3.5-.4 3.5-.4l-2.8-3.9-1.4-3.8-4.5 1.1-5.5-.7-.7 2.7 2.1 3.9-1.2 4s4-1.1 5.7-2.9z"/><path id="polyline245" class="st3" d="M847.9 99.9l-3.5.2-.7.9-2.6 2.1-4.5-2.3 1.6-1.8-2.3-1.4-2.5-3.5-4.2-1.3h-2.7l-3.2-.7.4-3.9"/><path id="polyline247" class="st3" d="M758.9 123l-1.7 3.1-3.4 1.4-.7 3.5 1.7 2.1 3.1 6.3 1.4-1.2.3-3 .5-1.8 2.5-3 1.7-3.5.8-2"/><path id="polyline251" class="st3" d="M1004.6 163.4l-1.1 1.7.4 2.7 2.7.4 1.4 2.8 4.1-3"/><path id="polyline253" class="st3" d="M1018.5 227.4l-3.9-1.8-2 1.4-3.5.4-1.4-1.8h-2.2l-1.6-2.1h-2.8l-1.4-5.9-3.1.3h-3.2l-1.7-2.8-1.8-1.6-2 1.6-3.2-1-.7-3.8-2.8.4-2 1.4 2 7.3.3 2.4-2.3 2.4-3.2.7.4 3.9-3.2.7-1.3 5.2-3.5.3-2.9 2.5 2.5 2.3 1.4 3.9-2.1 1.8v5.5l5.3 7.3.3 5.2 1.7 1.7-.4 2.5"/><path id="path255" class="st3" d="M1041.1 201.6l-.7-4.5-2.5-.4 1.1-3.2-2.4-.4-2.8-2.5 2.8-2.7 1.3 2.4 1.8.4h3.2l4.1-.4 6-1 .6-3.5-5.5-2.1-3.4-2.7-4.6-1.4-4.8-1.4-3.9.7v-2.5h-2.7l-2.8 1.8-.4 5.5-5.5 1.1-6.3 3.9h-4.1l-1.1 2.7-3.8 1.8-2.5-2.8-2.1 1.8-.7 5.6-.4 4.5-4.1.7-2.5 1.8h-4.8v-2.1l-4.9-.7-2.7 2.8h-3.5l-4.1 1.7-1.8-1-6.2 2.7-8-2.7-6 .6-5.5 2.1v3.2h-3.5l.7 3.8v2.5l-2.4 3.2-5.6.4.7 3.8 3.5-1.1-1.8 3.2 1.1 3.8 5.2-1.3 2.5 4.8-5.9 3.5 1.8 5.9-.4 3.4 2 2.8-5.5 6.2 3.5 3.2 5.9 2.5 3.5-1.3 2.7 1.6 3.5-2 3.1 1.8 2.1 2h4.5l-.4 2.5 3.9 2.8 4.8-1.4 2.1 1.8h3.9l6.2 5.2 1.8-2.1h3.8s1.1-3.8 2.5-4.1c1.4-.4 4.5-.7 4.5-.7l4.9-2.1 2-2.8 4.6-3.8 3.4-5.2 1.4-7.7 2.1-2.7-1.1-2.8 2.5-4.1-.4-9.1-.4-5.3-.7-4.1 2.5-2.1-1.8-4.1 1.1-2.1 2.4-2.5h4.2l3.8-1.3 2.5 2 4.6-1.8 4.3-4.9 3.5-1.1 3.1-1.8-3.1-1.3-1.1-2.8 3.4-1.8 3.9-3.1"/><path id="polyline257" class="st3" d="M1033.8 207.5l-4-4.5 2.9-1.1 2.1 1.6 2.1-1.2.3-2.8-3.4-2-.7-3.2-2.2-2.1-2-.4v3.6h-3.8l-.4 4.4 3.2 1.4-2.8 1.5-4.2.3.6 4.1"/><path id="polygon261" class="st5" d="M869.1 799.7h3.2l.8-7.2-4.8-.5-1.5 7.5z"/><path id="path263" class="st3" d="M1015.8 349.5l-3 2.5 6.2 11.8.8 2.5 2.5 5.5 3.2 3.5 3.2 5.5-4.8 2.5-2.5 7-3.5 1.2-1.8 4.5-2.5 1.5-.2 3.2s-1.5 1.8-2 4.2 2.2 3.5 2.2 3.5l-3.5 1.8-1 2.2v3.8c0 1.8-.8 2.8-.8 2.8l-3.5-.2v4l-2 1-4-4.5s-3-1.8-4-2.2-5.8-1.2-5.8-1.2-2-2-4.2-2-9-.5-9-.5l-4.2-1.2-4.2.5-2-2-9.2-.8-3.5 2-1.5-1.8-.2-1.8-2.5-2"/><path id="path265" class="st3" d="M847.1 447.9l6.8.8 4 1.8.2 4.5 4.2.5 2.5-2 6.2-2.5 11.5-2.8 3-1.5 2.2-6 2.5-.5-.5-4 1.8-2.5 1.8-.8-.8-6.8 3.5-.8 1-2.8 4 .2 5.2 2.2 1.8 3.2 1 3.8 2.2.5 8.8-4.2s-1-2.2.5-3 2.8-1.2 2.8-1.2v-3l9 .8 4.5-2.8 3.8-4.5 2.2-4.8 3-.2 2.8-3.5.5-3.2.2-4.5-3-1.5-.8-3.2v-3.8h2.2l.8-2.2-1.8-1.5.8-3.2V380l-.4-4.9 2-2-2.4-3.5s-.7-4.8-.7-6.2-2.8-2.8-2.8-2.8-1.1-2.1-2.4-2.5c-1.3-.4-5.3-1.3-5.3-1.3l-4.8 3.4s-4.9 0-6.6-.7c-1.7-.7-6-4.5-6-4.5l5.6-3.9 3.4-.4 3.2-3.1 2.7-4.9.4-3.1-1.7-6.2v-8l.4-7-17.8-3.1-6-1-3.8 1.7-5.2.4s-4.2-2.5-5.6-3.2-6.2-8.7-6.2-8.7l-5.6-6.1-5.2-3.8-6.2 2.2-1.8-9 3.8-.8.5-6.8-12.5-.5-21.2 3h-7l-9.5-5.8-14.8 1-5.3 6.5-4.5 4.8-3.8 2.8-1.2 2.8.5 4 2.2 1.5.5 2.2 2.5 5.5s-1 1.2-2.8 1.8-2 2.5-2 2.5v4.2l-4.2 6.5-2.8.5-.5 2s-1.5.5-2.8 1.8-1.2 5-1.2 5h-4.5l-4.8-.8-1.5 2-3 .5-.8 2-3.2.8-3.5 1-.8-5.2-4.8-.2-2 1.2-5.8-.5-7.2-4-4.2-1.8-.8-2.2-5.5-.8-2-7.5-4.5 3.5h-3.8l-1.8-1 1.5-4.5-2-1.5 1.2-3.2s1.5-6.5 1.5-8 0-2.2-.8-3.5-2.2-3.2-2.2-4.2-.5-2.2 0-3.2 1-2.5.8-4-1.8-8.2-1.8-8.2l-1.5-4 .2-2.6 2.2-4.2v-1.9s-.8-2.2-.8-3.5-1-3.2-1-3.2l-.5-5.2-3.8-3.8 4 .8 1.8-2 2.8.2 1.5-2.5 2.2-.8.2-3.5s1.2-2.2 2.2-3 2.5-2.2 3.2-3.2.8-4 .8-4-2 2.2-4 2.5-4.5 1-5.5 1.2-3 0-2-2 1.5-2.8 0-4.2-2.2-1.8-1.8-3.8l.8-4-.5-3.8-3.2-4-.2-6.5-2.8-.5-1-1.8h-3.8v-2.2l3.5-.5.8-3.8 1-1.8 1.2-2.5-4.2-1.5 2.2-3.2-.8-3.2 1.5-2.2-1-3.5-3-.5-1.2-4 2.2-1.2-.5-3.8-2.8.2-.8-5.8 1-2-1.2-2.8 1.5-2.8h4l.5-3.2 1.2-3 2.8 1.8.8-3.2 1.8-.5v-3.2l2.2-2 1.8-.8-.8-3 .8-3 1.2-2.8 1.6-3.3"/><path id="polyline269" class="st3" d="M729.9 469.2l-.3 3.3-2 1.2 1 3-.8 3.3 1.5 3-.2 6 2.7 3-.2 8.7-9.3.3-6.2-2.8-.3 8 3 3 .3 5"/><path id="path271" class="st3" d="M710.8 596.2l1.2-4.8 1.8-.8-1.2-3.8 1.8-2.5v-4.2l3.8.8 10.5-1.8.8-2.8 7.2-9s1.5-3 4-3.2 5-.8 5-.8l3.8-1.8-1.2-4.5v-3.8l2.2-8.8 2-1.5 2.8-.8 2.5 1.8 6.8-.2 2.2 3 5 .8 3.2-2 4.2 1 .5 4.5 3.2.5 7.8-6.2 6.2-.2 5.2 2.5 3.5-2 4.2 1.8 2.5-1.5 13 6.5 7.8-4.2 1.5 4 3.8.2s.8-3.8 3.5-4 5.2-.5 5.2-.5 1.2-3 3.8-3.2 3.5-.8 3.5-.8l3-3.5v-3l-2.5-2.2.2-5 2-2.8 2.5-.5s4 2.5 5 1.8 2-2.2 2-2.2v-2.8h2.2l3 5.2-2.2 3.2 1.2 2.8 1.8-.2 5.8-3.5 3.8.2 1.5 2.2 5 3.2.2 2.8 3.5 1v3.2h-2.5v2.8l-2.2 2-2.5 8.2.8 4.2-1.8 3.5 2 4.8-.8 4.8 4.5 3.5.2 4 2.2 1 .2 4h9.5l3.5 7.8-1.2 4.8-.2 5.8 4.2 8.8-4 2.2 1 3.8-2 3.2 2.2 6v7.8l-1.5 1-.2 2-5.5 2.8-1.2 8 2 1.8.8 3.5-2.2 2.2-1 3-2.2.8v4.5l2.8 5.5 4 5.2-1.5 10.5 2 .5 1.8 8.2 8.5 4.5 4.5 8.2 3 3.5 4 .8"/><path id="path273" class="st3" d="M793.1 545.4l-1.2-9 .2-7.2s-2 0-3-.8-2.2-2.5-2.2-2.5l-.2-2.2-2-1.2.2-2.5 2.5-1s-1.2-2-.5-3.5 2.2-2 2.2-2l2.8-3.5-.8-3.5.2-8h3l1.2-1.5.2-2.2 3.2-.8 1 2 2.2-.2.8-3.2h3l4.5-3.8 1.8-2s-2.8-3.5-1.2-5.5 4-3.5 4-3.5l1.8-.5 5 7 6.8-3 .2-4.5 2-6.5 1.8-1.5h2.5l-2-9.2 2.2-2.8 4 .8-.5-3 2.5-.5s.5-1.8 2-1.8 3-2.2 3-2.2l2.2-6.8-2.5-5.8 6.2-3.2 3.2-4.5 3.8-.2 3.2-1.5 2-2.2 4.5-2.5.5-4.8-.8-4.8-3-1.8-2.8-6.8"/><path id="path275" class="st3" d="M671.8 381.4l-1.8 2.8-7.5-.2-3.8-1.5s-6 3-8 4.2-1.5 4.2-1.5 4.2l4 3-1 3s-6.5 5-8.5 6.8-6 11.5-6 11.5-1.2-1.8-1.5-3.2.8-3.5.8-3.5l-3.8-1.2-2.2 1.8-.8 3.5-3.8.8-.8 3.5 1 2.5-1 9.2-2.8.8-.2 3.5-3.5 2.2s-1 2.8 0 4.8 2 3.2 2 3.2l2 4 1.5 4.2-2.2 1.2-.5 3.8 1.2 2.2 2.8-1.5 2 2 3.2-.8 4.2 5.8s4.8.5 6.2 2.2 4.8 5.5 4.8 5.5l5.8-4.5 3.2.2 3.2-1.8 5.5.2 1 1.8 4.2 1.2 4-2.8 4.2 1.8 2.8 4.2 5.2.2 9.5-7.8 4-3h6l2.2-2.5h2.8l2 3.8 1.5.2 2 2.5-.5 2.2h3l3-2 2.5.8 3-1 2.5.5v3h2.5s.2-3 2.5-2.2 3.5 1 3.5 1l3.2-1.2 2-2.5-1.5-2-2.5-2.8-.2-3-3.8-.5v-3.5h2.5s1.8 0 1.8-1-.5-3.8-.5-3.8l1.5-2.8v-4l2.8-3 2.8-1 .2-2.8-1.8-2.5-3-.2-1.8-1-4 .8.5-3.5.8-3-1.5-2.2 3.4-3-1.9-4.3-3.8-1.5 1.5-3 5.2-1.5.2-4 3-.2 1.8 2 3.5-1.5 2-2.5 3.5.2 3.8-3.8-1-2.8 4.2-.5-.8-4.5.2-5 4.5-6.8-.8-7"/><path id="polyline277" class="st3" d="M715.8 465.7l4.3-2.5 4 .8-2-5.8-2.3-.5-3.5-3.2-3.7-3.5v-3.3l-2-.2-1.3-1.5-.5-2.8-2-3.5-1.7-4.5-.3-3.2-1.2-.5.2-2.5 1.5-1.3.5-3.7 2.8-.5 2.5.2.7 3-2.5 2.8-.5 4.2 3-2.2 2-.5 2.5-3.3 2.3-.2.2-2.3h2.3l1.5 3.5-.5 3.8 4 .7 4.2-1.5 5.3-.5"/><path id="path279" class="st3" d="M709.3 458.9l-3-3.8-3.8-1.5-1.2-3.5-5.2-5.2-.5-2 3.8-1.2v-3l-1.5-.8-.2-3.5.2-3.8 1.2-3.5-1.5-3.2-.2-3 1.2-1.8.2-2.2 2-1v-3s-2.2-2-1-3 2.2-3.8 2.2-3.8-2.8-1.2-1.5-2.8 1.2-2.2 1.2-2.2l-1.2-1.5-4.8 2.2-4 .2-4.5-4.2 1.8-3.8 3.2-2.8-2.5-6 2.8-1.8-2.2-4.2-4 1-5-1-3.8-.2-3 2.5-4-.2-3-2 1.8-5.2h4.2l.5 2.2 3.2-.8 3.2-4 3 .8 3.8 1 2.8-1.5 5-1 3 2 9.8-10.5 4 .2.8 9.5 4.2-.8 7.5-.2.8-6.2 8.5 2.2.5 4.8s-1.8 5 2.2 6.5 7.5.2 7.5.2l11-2.2s6.2-3.2 7.8-3.5 6.5-1.8 7 3.2.5 15.5.5 15.5h3.6l3.9-.2 2.8 1.2 4.2.8s3.2 1.5 4.8 1.5 4.5-.2 4.5-.2l3-1 2.2 6s-1.8 2.2-.8 4 2.2 2.5 2.2 2.5l3.2-1 5-5.2 3.8-1.2 5.5-2.2 1.5 3.5 4.5.8 1.8-3.2 4-.5 3.5 2.5.2 5.8 1.5 4.8 4.2-2-.5 9.5 2.2 2.5 2-4.2h3.8l2.8-3.5 5.5-2.5 4.5-3 3.5-1.5s3-1.8 4.8-2 2.5-.8 2.5-.8v-2l-1.5-3.8 1.2-5 2.8-2.8-4-1.2-1-2.8-2-.2-3.5-5.2 2-1.5-.5-2.2-3.2-4.5-2.2-.5-1.5-6-4.8-2 1.8-3-.2-4.2 3.2-1.2 1.5 1.8 5.8-2.8 1.5-1.8 1.5-4 4-5v-3.2l3-3.2-5.5-2v-2.5l2.2-2.8 2.8-1 .5-5.5-2-1.2.8-6.2 1.8-3 1-3.8 2.2-3 4.2-6.5"/><path id="path281" class="st3" d="M390.1 647.2s1.7 1.5 5.2.8 5.8-4 5.8-4l.2-8.5 5.8-2.8 4.2-.5 3.8-3.2.8 4.5s-1.2 1.2-1.2 4 1.5 4.2 1.5 4.2l11.8-3.2 11.5-9.8 8.8-2.2 2.5-1.8 4.5 1.2.8 2.8 3.8-1 .2-2.8 2.2-.2 1.5 3v3l5.2.2 1-2.5 3.2.8 4.8-.2 2-3.5 3.8-2-8-3.5 2.2-5.2 7.5-1 3.2-1 2.5-.2s1 1.2 2.2 1.8 2.5-1 2.5-1l-.5-3.2 2.8-2.2.2-3.5 2.8-1 2-1.8 17.8 7.8 3.8 4h3.2l1.8-2.5 3.2-.2 11.2-8.5s5.5-6.8 8-7.2 6-3.5 6-3.5l5.2-3.5h7.2l8.5-3 7.2-4.5 3.2-4.8 5-.5 3.5-5.2s-1.2-4.8-1.5-5.8-1.5-2.5-1.5-2.5l.2-1 2.5-3.5 4.8-.2 1.5-3.5 3.8-.5 2.2-1.5h5.2s.2 2 2 2 2.8.2 2.8.2l2.5 2 3.8-1.8 11.2 3.8 3.2 4.2 7.2 2.2 5.5.2 1 4.2 10.8-1.5 12.2-2 1.5-2.2 4.5-.2 2-2.8 3.5-1 4.2-5.5 6-1 6.5-7.8v-9l2.2-4 .2-8 3.5-2.5 4-6.2 3.2-.5 2.8 1.8.2 13.8-2.8 6-1.5 7.2 3.8 6.2 2.2 10.5 7.2 3.5 3.2.2 2.2 4"/><path id="polygon283" class="st3" d="M394.8 396.7l-2.2 1-.5 2.3 1 1z"/><path id="path285" class="st3" d="M622.1 456.2l-2 1.8-3-.2s-2.5-1-4.5-.5-3.8 2.2-3.8 2.2h-2.2l-2 3.2-6 1-2-3.5-3-2 1.2-2.5-1.8-3.5-6.5-4.8-8.5-5.2-6.8-3-1.8-4.8.2-5.8-.8-2.8h-2.2l-.5-5.2 1-1.5 3.2-1 3.2-8.2-3.5-2.8s1.5-4.8 2.8-5.5 4-1.8 4-1.8l2.5 1 3.8-1 1-5.8 3.2-1-.2-5.5 3.5-1.2-.2-4.8 2-1.2-.5-6.2 1.8-3-1.2-1.8-4.2 1.2-3-2.5-4 1.2h-2l-1.5-1.8.5-1.2.5-3.8-1.8-1v-3.2l-2.5-.5-.5-3.8-2.5-.2-1.2-3.2s-.8-1.5 0-2.8 1.5-6 1.5-6l1.2-7.8-1.5-4v-4.2l-1.2-2.5.2-3.5 4.2-2.5 1-4.8s-.5-2-1.5-3.2-2.5-2.8-2.5-5 0-2.5.8-3.5 1.8-1.5 1-3.5-1.2-3.5-2.2-4-2.8-1.5-2.8-1.5l-1.5-4.8-3.2-7.5-2.2-2.2v-5"/><path id="path287" class="st3" d="M182.8 433.7l3 .8s6-1 8.5-2 7.2-3 7.2-3 5-4.5 7.5-5.8 8.2-4.8 8.2-4.8l3.5.5 2.8-1.8 5.8-1 4.5-8.2 7.8-5.2 12-4.8s.5 1.8.2 4-1.2 7.8-1.2 7.8l5.8 3.8-2 11 4.5-1.2 7.5 6.2"/><path id="polygon289" class="st3" d="M274.6 480.7l-1.5 2.5 2.5 1 3.7-.5 3-2.5h3.3l1.7 1.5 6 2 1.3-3.2-1.5-1.5 4-7.5-7.3-8-5.5 6.7.5 2.3-5.1 6.2-2.9.3z"/><path id="polygon291" class="st3" d="M268.1 474.2l-1.3 4-3.7 1.5-1.8 2.8 3.3 1.2v3.3l2 1.5 2.5-2.8.5-2.7 2.2-2.5-.5-5z"/><path id="polyline293" class="st3" d="M311.3 389l11.3 14.2 3-.2 2.2 2.5-2.7 2.7 7.2 7.3-3.2 3.5 3 2.7 3.2-1.7 4.8 2.7-2 3.3 3.5 2-3 4.7 3.2 2 9-11.2-3.5-3.3 5-6 2.8 2.3 3.5-3.5-3.5-2.3 1-1.7-4.2-4.8-6.1-8.5 1.3-3.7-1-2.8.7-6.2-2.2-2.8v-2"/><path id="polygon295" class="st3" d="M361.6 406l2-1.5h4l1 4.2-2.5 1.3-1.5 1.7-2.3-.5 1-2.5-2.5-.2z"/><path id="path297" class="st3" d="M340.5 377.6l-3.4-8.9s1.8-.8 2-4 0-6.2 0-6.2l3.5-4.2 5.2-.8 4-4.2 1.8-3.2-2.2-5.8 2.5-2.8-.8-3.5-1-3.2-4.5-1.2-5.5-3.8-2.5 2.5-3-4.8 5-4.8-3-1-3.5 1.8-3-1s-3 3.8-5.5 3.8-11.5 2-11.5 2l-2 .8-2.2-.2-3.2 2.8-6.5 3.5-2.2 2-2.2.5-2.5 2s-.5-5 .8-7 3-5 3-5l1.8-7.5-2.5-4.5-3-5.8-3.4-4.7"/><path id="polyline301" class="st3" d="M90.3 650.7l2.3 5.3 3.7 3 12.8 5.7 6.5-11"/><path id="polyline303" class="st3" d="M118.8 646.2l-9-4-2.3-1.6-.3-1.8-2.5 2.3-1.7 1.7-2.2-1.6 2.3-4.7 1.7.7-1-3 1.8-2.2 4.2 2 1.4 3 9.6 4.2"/><path id="path305" class="st3" d="M299.6 400.4l11.5 12.2-1.2 2.2 3.2 1.2 3.8 5.5 3.2 3.8 2-1.2-2.5-4.2 3.2-2.8 4 5-1.5 4.8-.5 3.8-1 3.2h3.8l-.8 4.5 1.5 2.2-1.5 4.2-3-1-2-2-2.8 2.8.8 4.5 1.8 4-2.2 2.5.5 2.2-1.2 2.5-2.5-.2-3.5 3.5.8 2.5-3.8 4-3-1.5-1.8 2.8 1 1.8 2.8-.5 1.2 1.2 2.8-1.2 2.8 3.8-1.2 2.2-.2 2.8-4 4.8-4 2-3.2 4.5-.2 4.2-4.8 5.2-1.5-2-2.2 1.8v2.2l2 1.8-1.2 2.8 1.2 2.5h-2.8l-1.2 2-2.8-.2-1-2-3.8.8-1.8 3.8-2.8-.8-3.5 1-2 1.8-1 6.8 1.5 1.5 2.2 8-2 1.2v4.8l-1.5 5.2h3.8l1.2-3.7 2.3.7 2 3.2h3l2.8-3 4.5 2.2 2.8 3.2h4l1.5-1.5h2.8l1 5.8-3.5 1.2s-4.2 4.5-5.2 5.5-1.8 3.5-1.8 3.5l-2.2.5-1.2-3.8-3.5 1.2-3.5.5-1.8-2.5-2.5 8 1.8 3.8 2.8 1 .2 3.2 2.2 2.8s2.8 1.5 4 1.8 2.2-1 2.2-1l4.5-6.8 4.8-3-.2 4 5.2-1.2 5.2 4.8 5.2-.5s2.2 2 3.2 3.2 2.2 1.8 2.2 1.8v3.8l2.5 2.2-.8 6.5 2.8 2 .5 2.2-2.5 3.2.2 2.5 9.8-5.5.5-5 5.8-5.2 1.5-3.5h2.8l1.8-2.5h11.5l1.8-3 3.5-1.5 2.5-3.2 3.2-9.2 4.5.8 6-4.8 2.2-3 2.5.8 3.2 5.5 3.5-6 2.2-1.2s2.2-1 3.5-2 2.5-2.2 3.5-3.5 6-8 6-8l3 2 3.5-.2 1.8-3.8 2.5-1.5-2.2-3.5s1.8-3.2 2-4.2.5-2.8.5-2.8l-2-1.5v-6l3.2.2 1.5-2.2-2.2-5.5 6.8.2 1.5 3 1.5 3.5s1.5-2.2 2.8-3.5 1.8-2.2 1.8-2.2-.8-2-.5-4 2.2-3.2 1-4.8-1-2.5 0-3.2 1-3.2 1-3.2l-2.8-.5-1.2-3-5.8-.5 1.5-4.8-11-2.8-2.7-.4-3.3-6.2 2.5-8.6-.4-1.7-.4-.8-3.4-6.5.8-2.7 1.2-.6.7-1.4.7-.3-.8-1 .6-3.8 1.4-1.4.4-3.1 2.2-3.4-1-2.3 2-.5-.7-1.2 1.4-2.4 1.5-.5.3-2.1-2.7-2.6-1.8-1.8 2.5-4.8h2.8v3.5l1.5.5.7-2.6 3.2-1.2 1.6-2.4.1-.8-1.3-1.6-1-6-.7-.7-.5-.5-4.3-.8-1.5.8-.9.5-1.6.9-1.3-1.1-1.6-1.4-1.4.1-2.8 1.4H406l-2.1-1.5-.6-.1-1.7-.2-1.8-1.7-4.5-.8-2 1.8-2.5-1.5-5.8.5-.2-2.2 3.8-2.2.5-5.8 1.5-1.8-2.2-4.5 2-2.2-1-3 1.2-3h-3.5l-.2-2 2.8-1.2 2.2-2.5 5-5-3-3.2 1.2-2-2-3.5-2.8-.2-4.5 2.5-2.2 2.2-22.5 7.2-13-.8-5-2-12.2-1.2-19 12.8-43 41s-7.8 9.2-9.5 10.8 11 11.8 11 11.8h2.2l-3.5 4.5 1.5 1.8 2.2-1.8 3.2 3.5s2.5-1 3.8.8 3.2 2.5 3.2 2.5h2l2.5-2 2 .2 3-3.8 1.5.8-.2 2.8 5.5 2.8 2.5-2 3.2-.5 1.5-2 .5-4.5 3-4-3-1.8-1.5 2-2-1.2 1.8-3.5v-3.8s.2-6 1.5-7.2 3.5-4.5 3.5-4.5l-3-3.8-4 1.5-2.8-2.5 4.5-1.8 1.5.8 2.2-1-1.2-2.8-2.5-.5-12.2-14"/><path id="line307" fill="none" stroke="#646464" stroke-width="3.402" stroke-linejoin="round" stroke-miterlimit="3.864" d="M806.2 82.7l-4.6.9"/><path id="path309" class="st5" d="M1039.8 166.7l2.9 3.4 1.8 4 1 1.1 1.5-1.5 2.8.2 4 4 2.8.6 2.5.2.7.8 2.8 3.5.8 1.7-.8 1-.2.4-1.1 2.1-.5 2.8.2 1 1.3 7.8-1 5.1-.1.7c.7.4 1.4.9 2.2 1.6 2.1 2 1.4 4.9 0 6.9s-3.1 2.8-4.8 3.2c-.9.2-3 .5-4.6.5l-.2.3-.6.7-.7 1.2-5.1 8.7-2.2 5.4-.6 3.6-2.7 4.2-4.6 3.2-.2.3-1.1 1.6-3.4 8.8-.5.1-3.2 3.7-7.3 16.7-4.2 16-.1 4.8.6 3.6.1.5.1.3.2.5 3.9 9.4.5 1.2 1.1 4.7 2.4 9.8-.2 2.6V330.6l-.3.8-.8 2.6-3.2 3.3-6.5 4.8-1.6 1.8-.2.5.6 1.1.4.8 1.6 3.1 7.2-1.1 6.2-2.5 2.5 2.5 1.1 3.1 3.2.4 4.1-2.4 7.3-2.1 4.9 3.8h3.4l4.2-2.7 7.3-1.4 2.4 2.8 4.6 1 3.4 2.5 6.3.7 1.7 2.5 4.6.7 5.9-1.4 2.8 3.4 4.1 2.8 3.5 1.1 3.4 3.4 5.6-1.7 2.4-2.5 3.9 1.1-1.4 3.1v2.8l4.6 2.8.3 4.5-5.5 9.4 3.2 12.8 9.4 5.3 6.9 3.1 6.2.4 3.8-1.7 2.1 5.2 5.6 2.1 3.6.6 3.2 2 7.2 7.8-.5 4.8 10.2 1.8.2 3.5 2.8 1.5v2l5-.2 2.2-2 7.5-1.5.5 2.2 7.2-3.2 3.5-5h3.5l7.2-.2.5-9.2-1.8-3.2 2.5-6.2 1.8-8.2 9.2 1.8 6 2.5 2.2-2 3.2.5-.2-3.8-1.5-2.2 1.2-4.5 3-1.5.5-3.5 1-1.8 1-3.2 4-7h6l3.2-3.8 3.2 2 .5 2 6 5.2.5 3.8 3.2 2.5 6.5 1.2 6.8 5 2 3.2-1 7.2-2 3.5-2 5.8-1.5 5.8 2 5.5 1 5.5-1.8 1.5-2.8 3.5-2.2 6.5-1.5 8-2.5 4-3.8-.2-1 6 4.5 5.5.2 6s-3 3.2-5.5 4.5-5.2 3.8-5.2 3.8v3.5s1.5 1.8 3 4.2 0 5.8 0 5.8l-2.2-.2-2 3.5-4.2 5.2s.8 2.2 2 4.5 1 8.2 1 8.2 1 2.2 1.5 4 1.2 4.2 1.2 4.2l3.2 1.5 1.5-2.2 9.9-.6 5.1 4.6 3.8 6.2-.5 10-1 3.8-2.2 5.5.5 3.5-1.2 4.2-4.5 3.5-9.8-6.2-5.8 2.5-8-4.5h-4.2l-2.5 6-4.2-4.2-7.2.8-.8-5-1.8-2.8-7.2-3.8-3.8 3.2-2-7 4.8-9-4.8-5.8-.8-5.5-6.5 3-1.8 3.5-8.5-2.8-4.5 4.2-6.8 1.8-2.8 2.5-7.5-2-1.8 3.2.2 7.5-1.2 2.8-4.8.5-.5 3.2 2 2.2-2.8 1.8-2.8 5.2-4.8 2.5-.5 3.5 2 1.5.2 6-2.2 2.5V588l2.5 4.8-3 3.2-.5 5 4 1.8 3.2 5.5h2.8l1.5 2 7.5.2 1.2-1.8 4-1.2 3.5.2 1.5 3 1 3.8 3.2-.8s.5 4.5.5 6.2-.2 4-.2 4l-4.2-1-5.8 4v7.2l-5.2 3.8-1 8 2.5 4.5 1.5 4.8 5.2 4 1.8 3.5 2.8.5-.2 3.8 2.5 1 .2 4.5 3.2 2 .5 4-10 10.5-4.2 1.2s-1.8-.2-6.8-1.8-7.8 4-7.8 4l-4.5-3.8 2-3.2s.5-4 .8-7-2.8-5.5-2.8-5.5l-8.8-5.2-7.2-2.5 1.2-6c.4-2-2-6.2-2-6.2l-3.5-2.2 3.8-7.8-.2-5.5-2.8-.5-4.2-2.8-3-4.2-.5-3s-4 .5-5.8 1-2.8 3.2-2.8 3.2l-6-5-6.5 3-.5 2.8-3.8 1.5-6.5-.2-3.2 1.5-3 3.2-4.2 3-5 1-4 3-4-1.5-1-2.5-3-2.2h-3l-3.2 4v2.8l-2 3.5v2.5l2.5 2-2.5 4.8-1 4.5-2.5.8-4.5-2-2.5-2.8-10 6h-6l-3-3-6.8-.2-4-2-3-2-3.2.8-6.2-7-2.5-5.5-3.2-10.8-2.5-2.5-8.5-4 2.2-4-2-10.5-2.2-3 1.8-16 1.2-2.8-1-7.5.8-6-.8-4-6.8 3-4 3.5-.2 6.5-3.5 3.8-5-2.8-1-3.2-4.5-4.5 1.2-1.8v-3.2l-3.5-1.8-2.2 1.2h-11l-9.8 4.2-1.5 3.8-1 11.8-2 2.8-4.8.8v7.2l3.5 4.8 5.2 4.8-.8 5.8 1.8 4.2-2 5.2 1 6 4.8 4.5-1.2 5.5-.2 6.2-2.5 2.8v5.5l-2.5 3.2-1 2.5-2.5 1.8v3.8l-2.8 1.8-1.5 13.2-3 .2-3 1.8-.5 3.5-1.5 2-4.2 3-3.2 13-1.2 2-6.8.5-1 3.8-2.8 1-4.8 4.5-2.5 5-5.2 2.2-2.8 2.8-5 2.5-.2 2.8 4.5 12-3.2 4v3.5l-3.5 1.5-4.5-.8-8.2 5.5-1.8 4-2 3.8 3.2 5.2 2.5 7.5-.8 4.8-3.2.8-.2 2.2-3.8.8-1.5 4.5 6.2 5.2-.5 5.8 2.8 2.2-1 2.8 6.2 1.2 1.2 2.5h2.5l5.2 5.8 2.5 5.2-4 6-3.5 1-2.8 7.8v4l-2.8 3.5-1.8 5.5-1.2 2.8-2.5-.8-3-2.2v-2.8l-2.5-2.5-4.8 1.8-3-3.5-5.5.8-1.8 3-5.2.2 1-4 2.5-3.8 4.5-5.8-2.5-3.5-.8-5.2-1.2-2.8v-3.8l-3.5-5.8s-4.8-6.2-6-8.8-.8-6.8-.8-6.8h-4.2l-4.5-6.2-3.8-4.5-3.5-3.5-11.5-2.5.8-3.5 4-6.8s1.2 0 2.5-.5 2.8-1.5 3-2.8 2.2-7.8 2.2-7.8l3 .2 2-5 .5-3.8-.5-3-4.8-3.2-8-7.5-2.8 2.2-3 .2-5-2.5-3-1-5.8-10.2-8.2 11.2-6.5-1.2-2-3.5h-4.5l-3.8-4.8h-8.8l-1-3.5-3.2-3.5-.2-7-2.2-.5-2.5-3.8-4-6.2-3.8-3.2-3.5-5.1-2.7-7.7-5-1-3.2-2-4.5-1.5-4-.8-1.2-4-2.2-1.8-3.8-2 1.5-2.5 2.2-1.2-1.5-4.8s-2.5-2.5-4-5-.5-6-.5-6h1.8l.2-4.5 7-8-1.5-9 2.2-2-1.5-12.8 1.8-1.5.2-2.2-2-2.2 1-2.2.5-2.2-2.5-2.8-.2-6.2 1.8-.5s.2-3-.5-5-3-2.5-3-2.5v-2.5l-1.8-1.5-2-.5-7.2 1.8-6.5 3.2-7.2-.2-4.8 5-7.8 6.5h-4.5l-4.5 8.2 6.2 3.2-.2 7.8-3 1.2-3.8 3.5-3.2-.8-3.5 2.2-.8 1.8.8 2.8s-.5 1.5-2.2 2-1.8 2.5-1.8 2.5h-4.2l-3.2 3.8-.5 3.5-2.5 5.2-2.2 2.2s-1 .8-2.2.8-3.2 1-3.2 1l-5.2 1.5-4-2.2-2.5-.5-5.2 4-2.2 3.8-9 8.2-.5 4.8 8.5 3.2v3.8l9 8.5-.2 3.2 3.2 7.5 2.5 4.5s-2.2 3.2-3.2 4.5-1.8 5.2-1.8 5.2l2.2 2.2-3.2 4.8h-3.8l-4.8 3.2.2 4.5-2 2.2-4 2-5.5.5-3.5 1.5-7.2.8-1.5 8-1.5 2.5v5.5c0 3 2.5 7.2 2.5 7.2l-5 5.5-.5 7.8-3 .8-1.2 5-.8 1.5-5.8.2-15.5-.2s-2 4.5-3.5 6.5-5 3.8-5 3.8l-1.2 7.8s-.2 3.5-1.8 6 2 6.8 2 6.8l-3 2.2s-5.2-1.5-6.5-1.8-5.8-1.8-5.8-1.8l-5.2 3.5-3.8-4-5.2-4.5-5.8-.5-3.8 6.2-4.2-.5-1.8-3.5-.2-6-3.8-2.8-4.8-.8-.8-4s-1.2-3-4-4-5.8 2.2-5.8 2.2l-16.2-.2-.5-3-1.8-3.8-7.8 1-2.2 4.5v7.5l-6.5-2.5-5.8.2-6.8 5.2-.8 5.5-6.2.8-4.8 6-5.2 3.5-2.5-.8-4.8 5.5-7.2-3-.2-2.8-4.8-1.2-4.8 2-1.8-3-7.5-2.2-2.8 7.5-4 3.5-10.2.5-2 3.5-4.8 4.2.8 5s-5.8-.8-6.8-2.5l-3-5.2-7.5 2.8s-.8 3.2-3.2 4.5-5.8 1-5.8 1-1.2-2.8-1.2-4 .2-2.8-.8-3.8-4.8-3-4.8-3l-.5-3-2.2-2.5-.5-4.2-6.5-4.8-1.2-5.2.2-7-1-2-4.5-1-2.8-4.2 4.2-3-3.8-4.5-1.8-5.2-3 .2-2.5-3.2-1-4-4.8-5.8-4.3-9.8-2.4 1.8-1.5-2 1-3.2-5.2-1.2-3.2 5.8-2.8 1-2.5 2.2-3.2-2 1.2-6 2.8-2.8.5-5.2-1.8-4.5 2.8-3.5 1-8.2-14.2-1.8-1.8-2.2h-6.2l-2.2.8-1-2.5-2.5.5s-2.5-6.2-2.2-7.8 2.5-4.5 2.5-4.5l3.2-5-1.2-8.5s1.2-4 1.8-5.2 1.8-2.8 1.8-2.8l.8-4.2 3-1 2.5-5.5 3.5-2.8 3.2-13.2-4.5-4.5s-.8 1-2.5-.5-3-2.2-3-2.2l-.2-2.8-4.5-4.2-4-1.8V647l-2-2.8-2.2.5-4-9.2s3.2-1.8 5-2.5 4-4.2 4-4.2l.2-8.2 3.5-12.8-38.5-12.2-42.2-1-28 17-23.2 4.5-23.5 18.5-8.5 19.5 4.8 3 3.2 6.5-3 4.5 5.8 12.2 3.3.5 5.8-5.2 1.5 3h2.8l.5 4.5-4 6.8s-4.8 3.2-5.8 4-5.5 2.5-5.5 2.5l-2.5 2-4-.8-11.8 10-1.2 7.5-4 1-10.5 8.5-3.2-1.5-4 .2-4.8-2.8-2.8.2-7-.5-1 3.8-4.5 2.2-3.2-2.5-9.5-.2-4 5-4.2-5.5.5-3.5 5-11 2.5-.5 2.2-2.5-6.2-4 1.8-7.5 5.5-.8 4.8-4.8 5.2-3.5 4 2.5 3.2-4.5 7.5-1.2 4.5 2.8 3.8-1.8 2.2-3.8-.8-5.5-2.2-2-.5-2.8-2.5-2 4.8-6 1-7.8 5.8-8.8 8-13.8-5-5.5-2 1.5-9.8-9-2.5-1-1.2-3.2-8.2-3 5.2-8.8-.5-3.8-2.8-2.2.8-5 6-5.8 4.8-13.5 5-6.2 2.5 1 4.8-6.5-7-7.5-5.2-7.2 5-6.2 12-8.2 1.2-3 13-10.8 10.8-10.8.8-3.2 3.2-3 27-15.5s3-1.5 3.2-3.5 1.2-3.8 2.5-4.2 7.8-2.8 7.8-2.8l3.5-3.2 3.2-4.2 2.8-8s-3-1.8-5-3.2-4-3-2.2-5 1.2-6 1.2-6l5.5-9.8 1.5-18.2-5-9-3-4.5 6.5-5.8 3-5.2 6.8-7.8 3 2.8 18.8-7.2 5.5-3s5.2-.2 6.5-1 6-4.5 6-4.5V368l.2-2.5 3.5-6 6.8-4.5h4l2.5-4 3-1.5-.8-4-6.5-2.8 4.8-3.5 1-4.2 3.2-1.8h6.5l.2-6-1.8-1.8 5.5-5.2 4.5-.5 5.8-3.5 7-5 7-5.5 1.8-4.4-3.3-.1.2-3.2 5.4-2.6 2.6-2.4 2-5 6-4 2.8-3 4.2-1.5 1.5-3.2 3-.8.8-3 3-1.5v-2.8l-2.2-2.2 1-2.8v-6l-1.8-4.2 1.5-2.2 6.5.2 2.8-1.8 3.2-.8 3.2-2-.8-2.5 2.5-4.8 2.5-3h6.5l2.2-2.8 2-4.2-2.8-4.2-1.2-4.5-3.2-.8-1.2-2.8-5.2-1-4.2 3.2h-4.2l-2.8 1.5s-6.8 1-8.5 1-2 0-4.5.8-2.2 0-4.2-1-2.5-.2-4 .2l-4.5 1.2 1.2-3.2.5-3.2 3-3.2s3.5-.8 4.2-1.8.8-3.2.8-3.2l1.2-3.8 5.2-1.2 1.5-4 .2-7.5 4.8-.2 1.8-2.2.5-2.8s2.8-1.2 4.5-1.2 4.8-2.8 4.8-2.8l-.5-2.5.2-3.2-3-2.8v-6.5l3-2.2 4.8-2.2 4.5 1.8 3.2.2 2.5 1.2 4 .5s.8 3 3.5 1.5 3.5-1.8 3.5-1.8l5.8-.2 2.5-3h3.5l5.2 5 9.2-.8-1.5 3.5-2.2 4.8-.8 6-2 6.2 4.2.5 2.8 1.2.2 1.5h4.2s1.8-1.2 3.5-1.8 3.8.8 3.8 2.2-.2 2.2-.2 2.2l3 1-.2 2.8s4.2-3 6-3.5 2.8-2.2 4.2-2.2 5.2-1.8 5.2-1.8l7-1.2s3-1 4.2.8 3 1.8 3 1.8h6l2.8 1.8s.5-2 2.5-2.2 3.5-1.2 3.5-1.2l4.8-5.2 1.8-3.5 4.2-1.5 2.2-4.8-8.8-3.8 3-5.8 10.8 7 5-.5 2.2-3 2.2-2.8 1.8-1.2-1.2-3.5-.2-2.8-2.5-1.8h4.2l2.5.5 2-4-2.8-2.8-2.5 1.2h-3l-1.2-3 3.2-3.2h3l6-6.5 4-1.2 1.8-4.8 2.5-1 4.4.2.4-5.5 4.2.8.8 4.2 5.5-.8 5.5-7.2 5.2 1 5.5-3 3.8-.8-3.2 3.2-4 3 2.2 3.2s.8 1.8.5 3.2-2.8 2.8-2.8 2.8l-3.8-.2-1.8 2-3.9-.3.2.2 1 1.8.9.8 4.1 3.8 1.8 1.7 1.6 1.4 1.5.4 2.8-.5 4.2-3 1.6-1 11.6-2.7.4-.1 1.3-.3 3.9-1.2 2-.6 1.7-.6 1-.7 1.3-1.6 2.2-2.8.9-2.3.4-2.4 3.9-2 2.6.1 2.8 1.3 9.8-2.1 3.4.3 2.6.8 1 .3 1.5 1.2 2.1 4.3.1 1.1.3 2.5.2 1.2.4 2.7.4.8 2 1.4 2.5.8.9-.2 1-2.5 1.7-1.6h4.3l4.1-.1 3.2-.4 2.7.9 2.6 1.9h1l3.2-1.2 3.3-.8.2-.1 1-.3 2.5-3.4 1.4-.3 1.9-.5 2.9 1.4 2.8 1.3.6-.1 2.2-6.6 2.7-2.8 4.5-.6.8-.6c5.7-5.7 10.1-2.6 15.6-9.5 2.6-3.2 5.1-8.1 10.4-5.6 2.3 1.1 1.8 2.6 3 4 .7-.2 1.4-.4 1.9-.6l.7-.2c.6-.2 1.2-.9 1.6-1.4l3.1-.3 3.2 2.9 4.3-.4 3.5 1.6 2.3 3.1-.4 3.6.1.3 3 1.8 3.8 4.9.7.4.7.4.8.4 4.8 1.3 4.7.4 2.2-.5 3.2-3.4 3.1-.3 3 1.8.8.4 3.6 1.2.3.1.8-.1 2.1-1.1 3-.3 4.8-1.2 3.3-1 .7-.2 1.9-.6-.9-1.3-4.9 1.4-2.7-4.5 3.4-2.1 2.1-4.1 7.3-1.8 2.1-3.2 1.4-2.7 4.8.3.7 2.5 3.4.4 4.6 4.2-3.2 5.9 6.1 1.9 1.2-1.4.2-1.9 2.2-4.1.4-1.7-2.3-9.4 1.1-4.3 4.7-3.8-1.4-3.5v-.6l-.1-1-3.3.3-3.1 3.1-3.2-.4-1.1-2.7-9.4 3.8.7 6.2s-4.5-1.8-6.6-1.4-4.8 1.4-4.8 1.4l-3.2-1.1.7 3.5-5.2-2.1v-4.1l-3.9.4-3.8-3.2-2.8-2.1-2.8.7-1.4-4.1 3.5-1.1 1.1-2.8-2.1-3.8-3.2-1.8 3.5-4.5 5.5-1.1 4.6-4.6.4-3.1-.7-3.2 2.5-5.2 2.4-3.5 4.2-4.5 6.2-2.1 2.5 1.8 3.1-2.5 5.3-1.4 4.8 1.1 2.8-.7-.7-3.8-2.8-1.8 1.4-5.5 3.4 2.4 7-.4 2.7 2.5-.4 4.8 1.8 3.5-1.4 3.5 2.1 1.3v3.5l6.6-3.9 1.1-3.8-1.4-4.2.4-4.1 2.5-2.5 1.8 3.9 4.5 3.1.7 3.9.3 4.6 4.2 2 5.3-2.8 5.9 6.3-4.7 1.9-3.7 2.6v3.9l2.5 3.4 4.1 1.1-1.1 8.7 2-.3 5.1 1.3 3.9 1 4.5 3.4 2.2.4 1.2-3.8 1.8-1.1-2.5-4.2-5.9-.7-.7-3.4 4.8-4.9 2.5-.4-2.1-3.1 2.8-3.9 3.8 5.3-1.3 2.4 2.4 2.5.7 4.2 4.2-1.4 2.7 2.7h6l.7 4.6-5.6.7 1.8 2.7-1.1 2.8 3.9 1.1 2.7 7.6s4.1 4 6.9 3.8c2.8-.3 11.9-3.4 11.9-3.4l9.8-5.2 10-6.3h5.3l4.8 2.1L906 90l7.3 4.1 3.9 1.6 2.3.6 2.8 2.3 3.4 2.8 4.2-1.4"/><path id="polyline311" class="st5" d="M773.9 104.7l.9-2.1-2.2-4.7"/><path id="polyline313" class="st3" d="M771 93.2l1.1-1.5 1-2.6 2-2 .8-4.3 2.2-1.9 4.3.2 2.9.8 3.8 4"/><path id="path317" class="st3" d="M394.8 555.7l3.2 5.2s.2 3.5.5 5.8-.5 5.2-.8 7.8-2.8 4.8-2.8 4.8l-.2 2.5h-2.5v5l2 4.2s-1.5 2.5-1.2 4-.8 3-.8 3l-1 2.8s-.8.8-2.8 1-5-.8-5-.8l-.5 3.2 1.2 1.8.8 2.2 2 2.2-.2 6.2s-1 2.5-2 4-2.2 6.2-2.2 6.2l4.3.6.9 3.2 1.2 2 3.8.5-2.5 2.8.8 5.5-1 5.8-8.5 9.5v4.8l2.2.8-.2 2.2-2.8.8-.2 2.5 1.5 2.8-4 1.5-2.5 3.8c-1 1.5-3.8 3-3.8 3l-.5 3-2 2.5-5.8.5-.2 6-9.8 8.8-5.2.2-6.8 5.1-6.8-8.2-2.5-9.1-5.4-10-4-5-5.3-8.5-3.6-4.1-2-12.1-3.4-7.1H302l-3.7-5.7c1.5-2.4 1.8-3.7 1-6.5-.4-1.3-.9-2.4-.9-2.4l-6.2-6.7-12.6-11.8"/></g></g></svg>